<svg width="180" height="175" viewBox="0 0 180 175" fill="none" xmlns="http://www.w3.org/2000/svg">
<g clip-path="url(#clip0_137_14)">
<path d="M89.9879 70.0412C109.329 70.0412 125.008 54.3619 125.008 35.0206C125.008 15.6793 109.329 0 89.9879 0C70.6465 0 54.9673 15.6793 54.9673 35.0206C54.9673 54.3619 70.6465 70.0412 89.9879 70.0412Z" fill="#FFE600"/>
<path d="M35.0368 109.999C54.3782 109.999 70.0574 94.3202 70.0574 74.9788C70.0574 55.6375 54.3782 39.9583 35.0368 39.9583C15.6955 39.9583 0.0162354 55.6375 0.0162354 74.9788C0.0162354 94.3202 15.6955 109.999 35.0368 109.999Z" fill="#FFE600"/>
<path d="M56.0589 174.614C75.4003 174.614 91.0795 158.935 91.0795 139.594C91.0795 120.252 75.4003 104.573 56.0589 104.573C36.7176 104.573 21.0383 120.252 21.0383 139.594C21.0383 158.935 36.7176 174.614 56.0589 174.614Z" fill="#FFE600"/>
<path d="M123.998 174.581C143.339 174.581 159.019 158.902 159.019 139.561C159.019 120.22 143.339 104.54 123.998 104.54C104.657 104.54 88.9774 120.22 88.9774 139.561C88.9774 158.902 104.657 174.581 123.998 174.581Z" fill="#FFE600"/>
<path d="M144.971 109.959C164.313 109.959 179.992 94.2794 179.992 74.9381C179.992 55.5967 164.313 39.9175 144.971 39.9175C125.63 39.9175 109.951 55.5967 109.951 74.9381C109.951 94.2794 125.63 109.959 144.971 109.959Z" fill="#FFE600"/>
<path d="M90.5662 92.8234C95.1338 92.8234 98.8366 89.1206 98.8366 84.553C98.8366 79.9855 95.1338 76.2827 90.5662 76.2827C85.9987 76.2827 82.2959 79.9855 82.2959 84.553C82.2959 89.1206 85.9987 92.8234 90.5662 92.8234Z" fill="#FFE600"/>
<path d="M90.0122 109.364C94.5797 109.364 98.2825 105.661 98.2825 101.094C98.2825 96.526 94.5797 92.8232 90.0122 92.8232C85.4446 92.8232 81.7418 96.526 81.7418 101.094C81.7418 105.661 85.4446 109.364 90.0122 109.364Z" fill="#FFE600"/>
<path d="M89.9877 134.175C112.826 134.175 131.339 115.661 131.339 92.8234C131.339 69.9855 112.826 51.4717 89.9877 51.4717C67.1498 51.4717 48.636 69.9855 48.636 92.8234C48.636 115.661 67.1498 134.175 89.9877 134.175Z" fill="#FFE600"/>
<path d="M64.8 86.3999C76.1792 110.488 102.906 110.537 115.2 87.8148" stroke="#ED2024" stroke-width="15.5385" stroke-linecap="round"/>
</g>
<defs>
<clipPath id="clip0_137_14">
<rect width="180" height="174.622" fill="white"/>
</clipPath>
</defs>
</svg>
