<svg width="200" height="200" viewBox="0 0 46 46" fill="none" xmlns="http://www.w3.org/2000/svg">
<mask id="mask0_1_30" style="mask-type:luminance" maskUnits="userSpaceOnUse" x="0" y="1" width="46" height="45">
<path d="M45.75 1.75H0.75V45.4055H45.75V1.75Z" fill="white"/>
</mask>
<g mask="url(#mask0_1_30)">
<path fill-rule="evenodd" clip-rule="evenodd" d="M31.3725 13.7713C31.7785 12.762 32.002 11.6597 32.002 10.5051C32.002 5.66983 28.0822 1.75 23.247 1.75C18.4116 1.75 14.4918 5.66983 14.4918 10.5051C14.4918 11.6616 14.716 12.7657 15.1234 13.7763C13.6035 12.5049 11.6457 11.7396 9.5092 11.7396C4.67387 11.7396 0.754049 15.6594 0.754049 20.4947C0.754049 25.33 4.67387 29.2497 9.5092 29.2497C9.71253 29.2497 9.91424 29.2428 10.1141 29.2292C7.6485 30.778 6.00957 33.5218 6.00957 36.6485C6.00957 41.4837 9.9294 45.4035 14.7647 45.4035C18.8642 45.4035 22.3056 42.5861 23.2582 38.7819C24.2137 42.5819 27.6531 45.3952 31.7495 45.3952C36.5847 45.3952 40.5048 41.4755 40.5048 36.6403C40.5048 33.513 38.865 30.7685 36.3984 29.2199C36.5948 29.2331 36.793 29.2397 36.9928 29.2397C41.8282 29.2397 45.748 25.3198 45.748 20.4845C45.748 15.6492 41.8282 11.7294 36.9928 11.7294C34.8534 11.7294 32.8932 12.4967 31.3725 13.7713ZM18.7062 22.5203C18.248 21.5504 17.0903 21.1356 16.1204 21.5938C15.1504 22.052 14.7356 23.2097 15.1938 24.1796C16.8764 27.7415 19.8587 29.7952 23.1274 29.8573C26.3807 29.919 29.4352 27.9974 31.2583 24.628C31.7688 23.6845 31.4177 22.5059 30.4743 21.9954C29.5308 21.4849 28.3522 21.8359 27.8417 22.7794C26.5913 25.0905 24.7682 26.0031 23.2011 25.9733C21.6493 25.9439 19.8684 24.9805 18.7062 22.5203Z" fill="black" fill-opacity="0.25"/>
</g>
<mask id="mask1_1_30" style="mask-type:luminance" maskUnits="userSpaceOnUse" x="0" y="0" width="46" height="45">
<path d="M45.75 0.75H0.75V44.4055H45.75V0.75Z" fill="white"/>
</mask>
<g mask="url(#mask1_1_30)">
<path fill-rule="evenodd" clip-rule="evenodd" d="M31.3725 12.7713C31.7785 11.762 32.002 10.6597 32.002 9.50515C32.002 4.66983 28.0822 0.75 23.247 0.75C18.4116 0.75 14.4918 4.66983 14.4918 9.50515C14.4918 10.6616 14.716 11.7657 15.1234 12.7763C13.6035 11.5049 11.6457 10.7396 9.5092 10.7396C4.67387 10.7396 0.754049 14.6594 0.754049 19.4947C0.754049 24.33 4.67387 28.2497 9.5092 28.2497C9.71253 28.2497 9.91424 28.2428 10.1141 28.2292C7.6485 29.778 6.00957 32.5218 6.00957 35.6485C6.00957 40.4837 9.9294 44.4035 14.7647 44.4035C18.8642 44.4035 22.3056 41.5861 23.2582 37.7819C24.2137 41.5819 27.6531 44.3952 31.7495 44.3952C36.5847 44.3952 40.5048 40.4755 40.5048 35.6403C40.5048 32.513 38.865 29.7685 36.3984 28.2199C36.5948 28.2331 36.793 28.2397 36.9928 28.2397C41.8282 28.2397 45.748 24.3198 45.748 19.4845C45.748 14.6492 41.8282 10.7294 36.9928 10.7294C34.8534 10.7294 32.8932 11.4967 31.3725 12.7713ZM18.7062 21.5203C18.248 20.5504 17.0903 20.1356 16.1204 20.5938C15.1504 21.052 14.7356 22.2097 15.1938 23.1796C16.8764 26.7415 19.8587 28.7952 23.1274 28.8573C26.3807 28.919 29.4352 26.9974 31.2583 23.628C31.7688 22.6845 31.4177 21.5059 30.4743 20.9954C29.5308 20.4849 28.3522 20.8359 27.8417 21.7794C26.5913 24.0905 24.7682 25.0031 23.2011 24.9733C21.6493 24.9439 19.8684 23.9805 18.7062 21.5203Z" fill="white"/>
</g>
</svg>
